<svg xmlns="http://www.w3.org/2000/svg" xmlns:xlink="http://www.w3.org/1999/xlink" viewBox="0 0 950.6 256" xmlns:v="https://vecta.io/nano"><defs><linearGradient id="A" x1="781.179" y1="163.44" x2="792.951" y2="175.631" gradientUnits="userSpaceOnUse"><stop offset="0" stop-color="#cc0023"/><stop offset="1" stop-color="#740014"/></linearGradient><linearGradient id="B" x1="742.07" y1="44.608" x2="883.514" y2="191.078" xlink:href="#A"/><path id="C" d="M161.1 219.6l-6.9-2.9a14.717 14.717 0 0 1-4.3-2.5 4.158 4.158 0 0 1-1.4-3.2 4.516 4.516 0 0 1 1.7-3.7 7.609 7.609 0 0 1 4.8-1.3 12.8 12.8 0 0 1 4.8.9 21.013 21.013 0 0 1 4.6 2.8l4.1-5a17.04 17.04 0 0 0-6.1-4 20.69 20.69 0 0 0-7.4-1.4 18.605 18.605 0 0 0-7.5 1.5 12.942 12.942 0 0 0-5.4 4.3 10.963 10.963 0 0 0-2 6.3 10.827 10.827 0 0 0 2.3 6.9 14.711 14.711 0 0 0 6.4 4.6l7 3a14.2 14.2 0 0 1 4.3 2.5 4.547 4.547 0 0 1 1.2 3.4 4.709 4.709 0 0 1-1.9 4 8.355 8.355 0 0 1-5.3 1.5 13.894 13.894 0 0 1-5.8-1.3 19.71 19.71 0 0 1-5.5-3.7l-4.6 5.5a21.644 21.644 0 0 0 7.2 4.6 22.153 22.153 0 0 0 8.5 1.6 19.064 19.064 0 0 0 8-1.6 14.313 14.313 0 0 0 5.7-4.5 11.427 11.427 0 0 0 2.1-6.8 10.951 10.951 0 0 0-2.2-7.1 13.731 13.731 0 0 0-6.4-4.4z"/><path id="D" d="M294.5 220.8l-1.4 4.3a33.992 33.992 0 0 1-1.4 4.2 43.289 43.289 0 0 1-1.3-4.2l-.9-2.6-.6-1.7-7.5-20.7h-9.2v43.2h7.4v-18.9c0-3-.3-7.8-.9-14.2h.2l10.3 29h4.9l10.3-29h.2l-.2 2.2c0 .7-.2 2.5-.4 5.4s-.4 5.1-.4 6.6v18.9h7.6v-43.2h-9.3z"/></defs><path d="M105.8 117.7c10.5 0 18.7-.2 24.7-.7s10.5-1.2 13.5-2.2a24.357 24.357 0 0 0 7.4-3.7 20.233 20.233 0 0 0 6.5-8.5 30.567 30.567 0 0 0 2.1-11.5c0-5.4-.5-14.5-1.4-27.2l-.3-4.6-22.1 4.2 3.2 21.7a72.048 72.048 0 0 1-11.2 1.3c-4.9.2-12.4.3-22.4.3H102a14.945 14.945 0 0 1-5.2-.8 5.99 5.99 0 0 1-3-2.4 48.161 48.161 0 0 0-6.5-14.8 94.3 94.3 0 0 0-11.9-14.6 212.345 212.345 0 0 1 22.8-5.9L95 23.6c-9.3 2.4-17.8 4.9-25.6 7.6a175.053 175.053 0 0 0-22 9.3l-.7 21.6a78.218 78.218 0 0 1 16.5 11.3c4.5 4.1 7.7 8.2 9.5 12.3a204.816 204.816 0 0 1-27.1 1.6c-9.1 0-15.6-.5-19.4-1.5-3.9-1-5.8-2.8-5.8-5.4 0-2.8.9-8.8 2.6-17.8L4.9 59.2.9 82.1a60.5 60.5 0 0 0-.9 8.3c0 10.6 4 17.9 12.1 21.9s19.3 6 33.8 6a150.136 150.136 0 0 0 25.6-1.8c6.8-1.2 12-3.2 15.7-6a13.9 13.9 0 0 0 5.9 5.3 21.309 21.309 0 0 0 9.6 2h3.1zm24.3 10.2l-9.9 11.7-13.1-11-12 14.3 14.3 12.1 9.9-11.7 13.1 11 12-14.4-14.3-12zm46-54.8l6.3 37.5c-2 3.7-5.4 7.1-10.4 10.4-4.9 3.3-12.9 7.2-23.9 11.8l15.5 24.7c9.8-4.8 17.5-9.7 23.1-14.6s9.6-10.2 11.9-15.8a50.691 50.691 0 0 0 3.6-19.8c0-4.4-.2-9.4-.7-14.8l-2.5-24zM200.3 46l-15.8-13.3-13 15.7 15.8 13.2 13-15.6zm128.9 64a62.623 62.623 0 0 0 1.7-14.2 49.585 49.585 0 0 0-2.9-17.4 27.069 27.069 0 0 0-8.2-12 19.191 19.191 0 0 0-12.4-4.4c-6 0-11.1 1.6-15.2 4.9s-7.6 8.4-10.6 15.4a7.416 7.416 0 0 1-2.6 3.4c-1 .6-2.9.9-5.6.9h-9.7a36.052 36.052 0 0 0-5.6-13.8 26.118 26.118 0 0 0-8.8-8.2A21.3 21.3 0 0 0 239 62a20.871 20.871 0 0 0-13 4.2c-3.7 2.8-6.6 6.9-8.7 12.2a52.2 52.2 0 0 0-3.1 19 28.025 28.025 0 0 0 .6 6.3 19.215 19.215 0 0 0 3 5.9 19.6 19.6 0 0 0 4 4.4 12.765 12.765 0 0 0 5 2 49.964 49.964 0 0 0 8.9.6c1.6 0 3.6-.1 6.1-.2a85.648 85.648 0 0 1-13.6 8.6 121.35 121.35 0 0 1-18.4 7.9l15.5 24.7c20.9-9.3 33.4-22.5 37.5-39.8h8.9c7.3 0 12.9-1.5 17-4.4l20.4 9.2a8.075 8.075 0 0 0 3.4.8 8.756 8.756 0 0 0 4-1 43.728 43.728 0 0 0 4.9-3.2 37.167 37.167 0 0 0 5.5-4.9 10.653 10.653 0 0 0 2.3-4.3zM240 94.9c-1.4 0-2.9-.1-4.5-.2s-2.8-.2-3.4-.3c0-3.5.6-6.1 2-7.8a5.846 5.846 0 0 1 4.9-2.5 6.918 6.918 0 0 1 5.5 2.6c1.5 1.8 2.2 4.3 2.2 7.7a40.772 40.772 0 0 1-6.7.5zm71.2 2.3l-13.4-5.7a24.25 24.25 0 0 1 3.6-5.1 5.4 5.4 0 0 1 8.5.8 10.917 10.917 0 0 1 1.7 6.3 10.506 10.506 0 0 1-.4 3.7zm65.4 45.7c5.6-4.9 9.6-10.2 11.9-15.8a50.691 50.691 0 0 0 3.6-19.8c0-4.4-.2-9.4-.7-14.8l-2.5-24-22.8 4.6 6.3 37.5c-2 3.7-5.4 7.1-10.4 10.4-4.9 3.3-12.9 7.2-23.9 11.8l15.5 24.7c9.7-4.8 17.4-9.7 23-14.6zM620.8 23.5l-.9-14.6-4 1.6c-10.2 3.8-18.2 7.2-23.9 10l-.3 14.5c4.3-2 8.6-3.8 13.1-5.6 4.4-1.7 9.8-3.7 16-5.9zm-7.2 7.7a175.053 175.053 0 0 0-22 9.3l-.7 21.6a80.073 80.073 0 0 1 16.4 11.3 40.651 40.651 0 0 1 9.6 12.2 248.507 248.507 0 0 1-27.1 1.1h-5.7c-2.8 0-4.7-.7-5.7-2.2a10.04 10.04 0 0 1-1.6-6.1l.3-54.7-22.9 3.4 2.9 58.3c-3.6.9-9.1 1.4-16.4 1.4h-1.8a17.452 17.452 0 0 1-5.3-.6 3.936 3.936 0 0 1-2.5-2 9.975 9.975 0 0 1-.9-4.1l-1.7-20.9-22 4.1 3.3 22.3a21.5 21.5 0 0 1-7.1 1.1 14.659 14.659 0 0 1-4.6-.6l-.2-17.9-19.5 1 .9 16.3a15.421 15.421 0 0 1-6.3 1.1c-1.6 0-2.8-.4-3.4-1.2a5.457 5.457 0 0 1-1-3.7v-9.4l-19.6.1.1 12.5c-2.7 1.1-6.6 1.7-11.8 1.7h-4.6c-2.7 0-4.6-.7-5.6-2.1-1.1-1.4-1.6-3.4-1.5-6.1l.6-54.9-22.9 3.4 2.1 56c.3 8.7 1.4 15.6 3.4 20.6s4.9 8.6 8.7 10.8q5.85 3.3 15.3 3.3h4.4c9.6 0 15.9-2.5 19-7.6a16.16 16.16 0 0 0 6.7 5.7 22.547 22.547 0 0 0 9.6 1.9 26.028 26.028 0 0 0 9.3-1.7 12.1 12.1 0 0 0 6.6-6.2c2.7 5.3 8.9 7.9 18.7 7.9a21.842 21.842 0 0 0 9.2-2 20.39 20.39 0 0 0 8-6 12.958 12.958 0 0 0 6.1 5.9 20.156 20.156 0 0 0 9 2.1h1.3a53.094 53.094 0 0 0 16.2-2.1 16.854 16.854 0 0 0 9.8-7.7 13.646 13.646 0 0 0 8.1 7.7c3.7 1.3 8.7 2 15 2h.1c11.8 0 21.2-.7 28.3-2.2s12.4-3.9 15.8-7.4 5.1-8.3 5.1-14.4a43.844 43.844 0 0 0-5-20.3c-3.3-6.4-8.2-12.8-14.6-19.3a212.345 212.345 0 0 1 22.8-5.9l-3.2-24.7-25.5 7.9z" fill="#0a0a0a"/><g fill="#b5b5b5"><path d="M23 226.2h8v9.3a7.065 7.065 0 0 1-2.6 1.3 11.418 11.418 0 0 1-3.3.5c-4.3 0-7.5-1.4-9.7-4.2s-3.3-6.6-3.3-11.6a19.873 19.873 0 0 1 1.5-7.9 12.5 12.5 0 0 1 4.3-5.5 11.15 11.15 0 0 1 6.8-2 11.106 11.106 0 0 1 4.6.9 14.409 14.409 0 0 1 4 2.9l4.3-5.2a17.642 17.642 0 0 0-13.2-5.4 20.886 20.886 0 0 0-10.9 2.9 18.846 18.846 0 0 0-7.3 8 25.834 25.834 0 0 0-2.6 11.7 25.38 25.38 0 0 0 2.5 11.6 17.579 17.579 0 0 0 7.2 7.8 20.694 20.694 0 0 0 11 2.8 23.179 23.179 0 0 0 8-1.4 15.1 15.1 0 0 0 6-3.8v-19.1H23zm57.2-24.1a18.6 18.6 0 0 0-10.4-2.8 18.6 18.6 0 0 0-10.4 2.8 18.005 18.005 0 0 0-6.6 7.8 28.244 28.244 0 0 0-2.3 11.6 28.729 28.729 0 0 0 2.3 11.7 17.9 17.9 0 0 0 17 10.9 18.6 18.6 0 0 0 10.4-2.8 18.879 18.879 0 0 0 6.7-8 27.168 27.168 0 0 0 2.3-11.7 28.244 28.244 0 0 0-2.3-11.6 16.9 16.9 0 0 0-6.7-7.9zm-2.4 30.8a9.449 9.449 0 0 1-13.8 2.4 12.527 12.527 0 0 1-3.7-5.6 25.64 25.64 0 0 1-1.3-8.2c0-4.6.9-8.4 2.8-11.2a9 9 0 0 1 7.9-4.2 9.163 9.163 0 0 1 8 4.2c1.9 2.8 2.9 6.6 2.9 11.2.1 4.7-.9 8.5-2.8 11.4zm33-32.8h-8.1v43.1h26.1v-6.5h-18v-36.6z"/><use xlink:href="#C"/><path d="M192.7 200.1l-14 43.1h8.3l3.3-11.5h14.1l3.2 11.5h8.7L202.4 200h-9.7zm-.7 25.6l1.5-5.2 1.9-6.9.7-2.7.5-1.9.5-2.2h.3l1.6 5.5a7.543 7.543 0 0 1 .4 1.5l1.9 6.8 1.5 5.2H192zm66.6-12.8c0-4.4-1.4-7.6-4.2-9.7s-6.8-3.2-12-3.2h-14.9v43.2h8.2v-16.7h6.3l9.1 16.7h9.2l-10.4-17.9c5.8-2 8.7-6.1 8.7-12.4zm-10.4 5.6c-1.5 1.3-3.7 1.9-6.6 1.9h-5.9v-14.1h5.9c3 0 5.3.5 6.7 1.6 1.5 1.1 2.2 2.7 2.2 5.1a6.576 6.576 0 0 1-2.3 5.5z"/><use xlink:href="#D"/><path d="M352,224.8c0,4.2-.7,7.3-2.1,9.4s-3.6,3.1-6.5,3.1-5.1-1-6.5-3.1-2.1-5.2-2.1-9.5V200h-8.2v24.1c0,13.3,5.6,19.9,16.8,19.9,5.6,0,9.7-1.7,12.5-5,2.7-3.3,4.1-8.3,4.1-14.9V200h-7.9v24.8Z"/><use xlink:href="#C" x="234.2"/><path d="M416.8 200.1h8.2v43.2h-8.2zm46.6 36.1a11.255 11.255 0 0 1-4.8 1.1 9.758 9.758 0 0 1-8.5-4.3c-2-2.8-3.1-6.7-3.1-11.5a22.2 22.2 0 0 1 1.4-7.9 13.655 13.655 0 0 1 4-5.6 9.967 9.967 0 0 1 6.3-2.1 8.679 8.679 0 0 1 4.2 1 22.553 22.553 0 0 1 4 2.8l4.2-5.2a15.346 15.346 0 0 0-5.5-3.9 16.61 16.61 0 0 0-7-1.5 19.231 19.231 0 0 0-10.5 2.9 19.741 19.741 0 0 0-7.1 8 25.672 25.672 0 0 0-2.5 11.6 26.582 26.582 0 0 0 2.4 11.5 18.346 18.346 0 0 0 6.9 7.9 19.176 19.176 0 0 0 10.5 2.8 17.528 17.528 0 0 0 13.7-6.2l-4.2-5a15.511 15.511 0 0 1-4.4 3.6zm25.9-2.7a5.606 5.606 0 0 0-3.9 1.5 5.2 5.2 0 0 0-1.5 3.8 4.918 4.918 0 0 0 1.6 3.8 5.2 5.2 0 0 0 3.8 1.5 4.975 4.975 0 0 0 3.7-1.5 5.563 5.563 0 0 0 0-7.6 4.975 4.975 0 0 0-3.7-1.5zm43.5 2.7a11.255 11.255 0 0 1-4.8 1.1 9.758 9.758 0 0 1-8.5-4.3c-2-2.8-3.1-6.7-3.1-11.5a22.2 22.2 0 0 1 1.4-7.9 13.655 13.655 0 0 1 4-5.6 9.967 9.967 0 0 1 6.3-2.1 8.679 8.679 0 0 1 4.2 1 18.306 18.306 0 0 1 4 2.8l4.2-5.2a15.346 15.346 0 0 0-5.5-3.9 16.61 16.61 0 0 0-7-1.5 19.231 19.231 0 0 0-10.5 2.9 19.741 19.741 0 0 0-7.1 8 25.672 25.672 0 0 0-2.5 11.6 26.582 26.582 0 0 0 2.4 11.5 18.346 18.346 0 0 0 6.9 7.9 19.176 19.176 0 0 0 10.5 2.8 17.528 17.528 0 0 0 13.7-6.2l-4.2-5a17.009 17.009 0 0 1-4.4 3.6zm48.2-34.1a20.714 20.714 0 0 0-20.8 0 18.005 18.005 0 0 0-6.6 7.8 28.244 28.244 0 0 0-2.3 11.6 28.729 28.729 0 0 0 2.3 11.7 17.9 17.9 0 0 0 17 10.9 18.6 18.6 0 0 0 10.4-2.8 18.879 18.879 0 0 0 6.7-8 27.168 27.168 0 0 0 2.3-11.7 28.244 28.244 0 0 0-2.3-11.6 17.479 17.479 0 0 0-6.7-7.9zm-2.4 30.8a9.449 9.449 0 0 1-13.8 2.4 12.527 12.527 0 0 1-3.7-5.6 25.64 25.64 0 0 1-1.3-8.2c0-4.6.9-8.4 2.8-11.2a9 9 0 0 1 7.9-4.2 9.163 9.163 0 0 1 8 4.2c1.9 2.8 2.9 6.6 2.9 11.2.1 4.7-.9 8.5-2.8 11.4z"/><use xlink:href="#D" x="331.3"/></g><circle cx="787.9" cy="170.4" r="13.3" fill="url(#A)"/><path d="M900.6 0h-156a50.018 50.018 0 0 0-50 50v156a50.018 50.018 0 0 0 50 50h156a50.018 50.018 0 0 0 50-50V50a50.018 50.018 0 0 0-50-50zm11.6 89.6l-90.6 24.3v58.6h-.1a33.683 33.683 0 1 1-33.6-35.8 33.016 33.016 0 0 1 13.3 2.8V65.1a10.079 10.079 0 0 1 7.5-10.2l54.4-14.6a10.139 10.139 0 1 1 5.2 19.6l-46.8 12.6v20.4L906.8 70a10.088 10.088 0 0 1 12.4 7.2 9.937 9.937 0 0 1-7 12.4z" fill="url(#B)"/></svg>